# xmcd
#
# Track frame offsets:
#	150
#	18527
#	38118
#	56775
#	76554
#	99261
#	118988
#	139786
#	155398
#	173724
#	191440
#	208520
#
# Disc length: 2998 seconds
#
# Revision: 0
# Processed by: cddbd v1.5.2PL0 Copyright (c) Steve Scherf et al.
# Submitted via: EasyCDDAExtractor 11.0.0.1
#
DISCID=960bb40c
DTITLE=ΚΩΝΣΤΑΝΤΙΝΑ - ΛΑΘΟΣ
DYEAR=1998
DGENRE=ΛΑΪΚΑ
TTITLE0=ΑΦΕΤΗΡΙΕΣ
TTITLE1=ΒΑΛΕ ΣΤΗ ΝΥΧΤΑ
TTITLE2=ΣΕ ΑΓΑΠΑΩ ΜΟΝΑΞΙΑ ΜΟΥ
TTITLE3=ΛΑΘΟΣ
TTITLE4=ΤΑΞΙΔΙ ΜΟΥ ΠΑΡΑΞΕΝΟ
TTITLE5=ΦΟΡΤΗΓΑ
TTITLE6=ΠΑΡΑΜΥΘΙΑ
TTITLE7=ΟΛΟ ΤΡΕΧΩ
TTITLE8=ΝΑ ΜΕ ΦΩΝΑΞΕΙΣ
TTITLE9=ΠΟΣΟ ΜΟΥ ΑΡΕΣΕΙ ΝΑ ΓΕΛΑΣ
TTITLE10=ΟΝΕΙΡΕΥΟΜΑΙ
TTITLE11=ΘΕΛΩ ΝΑ ΕΡΘΕΙΣ
EXTD=
EXTT0=
EXTT1=
EXTT2=
EXTT3=
EXTT4=
EXTT5=
EXTT6=
EXTT7=
EXTT8=
EXTT9=
EXTT10=
EXTT11=
PLAYORDER=
